<svg width="308" height="115" viewBox="0 0 308 115" fill="none" xmlns="http://www.w3.org/2000/svg">
<g filter="url(#filter0_d_309_2)">
<path d="M24.0547 33.2793C26.3333 33.0189 28.6934 32.791 31.1348 32.5957C33.6087 32.4004 35.9199 32.3027 38.0684 32.3027C38.7194 32.2702 39.4681 32.2376 40.3145 32.2051C41.0306 32.1725 41.8607 32.1562 42.8047 32.1562C43.7812 32.1237 44.8392 32.1074 45.9785 32.1074C47.1829 32.1074 48.4525 32.1237 49.7871 32.1562C51.1543 32.1888 52.5215 32.2376 53.8887 32.3027C54.0189 30.3496 54.1491 28.3314 54.2793 26.248C54.4095 24.1647 54.5234 22.1628 54.6211 20.2422C54.7513 18.2891 54.849 16.4987 54.9141 14.8711C55.0117 13.2109 55.0931 11.8275 55.1582 10.7207V7.40039C55.1582 6.48893 55.1582 5.59375 55.1582 4.71484C55.1582 3.80339 55.1908 3.07096 55.2559 2.51758C55.4837 1.44336 55.9557 0.90625 56.6719 0.90625C57.0951 0.90625 57.4206 0.955078 57.6484 1.05273C57.8763 1.15039 58.2832 1.32943 58.8691 1.58984C59.1621 1.6875 59.4714 1.81771 59.7969 1.98047C60.1549 2.14323 60.4967 2.32227 60.8223 2.51758C61.1478 2.68034 61.4408 2.85938 61.7012 3.05469C61.9616 3.21745 62.1569 3.36393 62.2871 3.49414C62.4173 3.62435 62.5801 3.85221 62.7754 4.17773C62.9707 4.4707 63.166 4.79622 63.3613 5.1543C63.5566 5.51237 63.7194 5.88672 63.8496 6.27734C63.9798 6.63542 64.0286 6.94466 63.9961 7.20508C63.9635 7.46549 63.8822 8.42578 63.752 10.0859C63.6217 11.7135 63.459 13.8783 63.2637 16.5801C63.0684 19.2493 62.8568 22.3581 62.6289 25.9062C62.401 29.4544 62.1895 33.2467 61.9941 37.2832C61.7012 43.7936 61.5547 49.1973 61.5547 53.4941C61.5547 56.7168 61.6035 59.321 61.7012 61.3066C61.8314 63.2923 61.9941 64.6921 62.1895 65.5059C62.4824 66.873 62.694 67.8496 62.8242 68.4355C62.9544 69.0215 62.9382 69.4121 62.7754 69.6074C62.7103 69.6725 62.6126 69.7376 62.4824 69.8027C62.1569 69.9329 61.6198 70.0632 60.8711 70.1934C60.7409 70.5514 60.6107 70.8444 60.4805 71.0723C60.3503 71.2676 60.2201 71.4303 60.0898 71.5605C59.9596 71.6908 59.8294 71.8047 59.6992 71.9023C59.3737 72 59.0645 72.0977 58.7715 72.1953C58.4785 72.293 58.2507 72.2604 58.0879 72.0977C57.9902 72.0651 57.9089 72.0163 57.8438 71.9512C57.7135 71.8861 57.5996 71.707 57.502 71.4141C57.1764 71.5443 56.8835 71.5443 56.623 71.4141C56.4928 71.349 56.3789 71.2839 56.2812 71.2188C56.0208 70.9909 55.6465 70.584 55.1582 69.998C54.6699 69.4121 54.3444 68.6146 54.1816 67.6055C54.1165 67.1172 54.0026 66.5964 53.8398 66.043C53.7096 65.457 53.5632 64.8711 53.4004 64.2852C53.2702 63.6667 53.1237 63.0807 52.9609 62.5273C52.8307 61.9414 52.7331 61.4043 52.668 60.916C52.5703 60.4603 52.5215 59.5 52.5215 58.0352C52.554 56.5703 52.6029 54.8613 52.668 52.9082C52.7656 50.9551 52.8796 48.8717 53.0098 46.6582C53.14 44.4447 53.2702 42.3613 53.4004 40.4082C53.4004 40.1478 53.4004 39.8711 53.4004 39.5781C53.4004 39.2852 53.4329 38.9596 53.498 38.6016C52.0332 38.5365 50.5846 38.5039 49.1523 38.5039C47.7526 38.5039 46.4017 38.5039 45.0996 38.5039C43.472 38.5039 41.9909 38.5202 40.6562 38.5527C39.3216 38.5527 38.1497 38.569 37.1406 38.6016C35.9688 38.6341 34.9108 38.6667 33.9668 38.6992C30.5163 38.6992 27.1797 38.7969 23.957 38.9922C23.9245 39.4805 23.8919 39.9036 23.8594 40.2617C23.8594 40.6198 23.8594 40.929 23.8594 41.1895V41.9219C23.7943 45.112 23.7292 48.1719 23.6641 51.1016C23.599 54.0312 23.5501 56.6517 23.5176 58.9629C23.485 61.2741 23.4525 63.1947 23.4199 64.7246C23.4199 66.2546 23.4362 67.2148 23.4688 67.6055C23.4688 67.931 23.4525 68.2728 23.4199 68.6309C23.3874 68.9564 23.3223 69.347 23.2246 69.8027C23.1595 70.2259 23.0456 70.6979 22.8828 71.2188C22.5573 71.2513 22.248 71.3652 21.9551 71.5605C21.8249 71.6582 21.6947 71.7396 21.5645 71.8047C21.2715 72 20.9948 72.2116 20.7344 72.4395C20.5065 72.6999 20.2949 72.7487 20.0996 72.5859C19.8392 72.3906 19.5137 72.2604 19.123 72.1953C18.765 72.1302 18.3092 72.0977 17.7559 72.0977C17.4954 72.0977 17.2188 72.0163 16.9258 71.8535C16.6328 71.6908 16.3561 71.5117 16.0957 71.3164C15.8353 71.0885 15.6074 70.8444 15.4121 70.584C15.2168 70.3236 15.1029 70.0957 15.0703 69.9004C15.0052 69.7051 14.9238 69.4284 14.8262 69.0703C14.7285 68.6797 14.6309 68.2891 14.5332 67.8984C14.4681 67.4753 14.403 67.0846 14.3379 66.7266C14.2728 66.3359 14.224 66.0592 14.1914 65.8965C14.1589 65.7337 14.1589 64.9199 14.1914 63.4551C14.224 61.9902 14.2891 60.0697 14.3867 57.6934C14.4844 55.2845 14.5983 52.5339 14.7285 49.4414C14.8587 46.3164 15.0052 43.0286 15.168 39.5781C13.931 39.7083 12.8893 39.8223 12.043 39.9199C11.1966 39.985 10.6758 40.0501 10.4805 40.1152C10.1224 40.1803 9.82943 40.2617 9.60156 40.3594C9.40625 40.4245 9.22721 40.4896 9.06445 40.5547C8.93424 40.6198 8.80404 40.6686 8.67383 40.7012C8.54362 40.7012 8.41341 40.6686 8.2832 40.6035C8.08789 40.6035 7.89258 40.4896 7.69727 40.2617C7.53451 40.0013 7.42057 39.7083 7.35547 39.3828C6.9974 39.3177 6.75326 39.2038 6.62305 39.041C6.52539 38.8457 6.44401 38.6992 6.37891 38.6016C6.37891 38.3411 6.49284 38.1621 6.7207 38.0645C6.98112 37.9342 7.37174 37.6087 7.89258 37.0879C8.12044 36.86 8.44596 36.6484 8.86914 36.4531C9.32487 36.2253 9.79688 36.0137 10.2852 35.8184C10.7734 35.623 11.2454 35.4603 11.7012 35.3301C12.1895 35.1673 12.6126 35.0534 12.9707 34.9883L15.3633 34.5977C15.5586 31.4076 15.7539 28.4941 15.9492 25.8574C16.1445 23.2207 16.3236 20.7793 16.4863 18.5332C16.6491 16.2871 16.7793 14.2038 16.877 12.2832C17.0072 10.3301 17.0723 8.44206 17.0723 6.61914C17.0723 6.09831 17.056 5.61003 17.0234 5.1543C16.9909 4.69857 16.9746 4.21029 16.9746 3.68945C16.9746 3.29883 17.0723 2.97331 17.2676 2.71289C17.4954 2.41992 17.7721 2.24089 18.0977 2.17578H18.6836C19.0417 2.17578 19.709 2.22461 20.6855 2.32227C20.8158 1.99674 20.9622 1.78516 21.125 1.6875C21.2227 1.6224 21.304 1.58984 21.3691 1.58984C21.6296 1.58984 21.8411 1.65495 22.0039 1.78516C22.1992 1.88281 22.3294 1.98047 22.3945 2.07812C22.3945 2.14323 22.4108 2.20833 22.4434 2.27344C22.4759 2.37109 22.5247 2.51758 22.5898 2.71289C22.8503 2.77799 23.0456 2.8431 23.1758 2.9082C23.306 2.97331 23.4199 3.03841 23.5176 3.10352C23.6152 3.20117 23.6966 3.26628 23.7617 3.29883L23.9082 3.5918C24.0059 3.78711 24.1035 4.16146 24.2012 4.71484C24.429 5.20312 24.5755 5.54492 24.6406 5.74023C24.6732 5.87044 24.6895 5.95182 24.6895 5.98438C24.6895 6.04948 24.7057 6.13086 24.7383 6.22852C24.7383 6.29362 24.7383 6.35872 24.7383 6.42383C24.7708 6.48893 24.7871 6.55404 24.7871 6.61914L24.0547 33.2793ZM104.377 54.1777C104.377 54.5358 104.393 54.959 104.426 55.4473C104.458 55.9355 104.475 56.4889 104.475 57.1074C104.475 57.8887 104.361 58.8652 104.133 60.0371C103.905 61.1764 103.531 62.3809 103.01 63.6504C102.521 64.9199 101.854 66.1895 101.008 67.459C100.161 68.7285 99.1198 69.8678 97.8828 70.877C96.6458 71.8861 95.181 72.6999 93.4883 73.3184C91.8281 73.9694 89.9238 74.2949 87.7754 74.2949C85.8548 74.2949 83.8854 73.9206 81.8672 73.1719C79.8815 72.4557 78.0586 71.3327 76.3984 69.8027C74.7708 68.2402 73.4199 66.2708 72.3457 63.8945C71.304 61.4857 70.7832 58.6211 70.7832 55.3008C70.7832 53.2174 71.0436 51.1667 71.5645 49.1484C72.1178 47.1302 72.834 45.2259 73.7129 43.4355C74.6243 41.6452 75.6823 40.0013 76.8867 38.5039C78.1237 36.974 79.4095 35.6719 80.7441 34.5977C82.1113 33.4909 83.5111 32.6283 84.9434 32.0098C86.4082 31.3913 87.8242 31.082 89.1914 31.082C91.5677 31.082 93.5208 31.4564 95.0508 32.2051C96.6133 32.9538 97.8503 33.8815 98.7617 34.9883C99.6732 36.0951 100.308 37.2832 100.666 38.5527C101.057 39.7897 101.252 40.9128 101.252 41.9219C101.252 42.8984 101.008 44.0215 100.52 45.291C100.064 46.528 99.2988 47.7161 98.2246 48.8555C97.1504 49.9622 95.7507 50.9062 94.0254 51.6875C92.3001 52.4362 90.1842 52.8105 87.6777 52.8105C86.3431 52.8105 85.1387 52.6315 84.0645 52.2734C83.0228 51.8828 82.0951 51.4108 81.2812 50.8574C80.4674 50.2715 79.7676 49.653 79.1816 49.002C78.6283 48.3184 78.1562 47.6836 77.7656 47.0977C77.1797 49.1159 76.8867 51.4759 76.8867 54.1777C76.8867 56.0332 77.1471 57.7096 77.668 59.207C78.2214 60.6719 78.9701 61.9251 79.9141 62.9668C80.8581 64.0085 81.9811 64.806 83.2832 65.3594C84.5853 65.9128 86.0176 66.1895 87.5801 66.1895C89.5332 66.1895 91.2422 65.8639 92.707 65.2129C94.1719 64.5293 95.4414 63.6829 96.5156 62.6738C97.6224 61.6647 98.5664 60.5742 99.3477 59.4023C100.161 58.1979 100.861 57.1074 101.447 56.1309C102.033 55.1217 102.538 54.2917 102.961 53.6406C103.417 52.9896 103.856 52.6803 104.279 52.7129C104.475 52.7129 104.572 52.8757 104.572 53.2012C104.572 53.3639 104.556 53.5267 104.523 53.6895C104.491 53.8522 104.442 54.015 104.377 54.1777ZM89.6797 36.0137C89.0938 36.0137 88.3288 36.1439 87.3848 36.4043C86.4733 36.6322 85.4967 37.0553 84.4551 37.6738C83.446 38.2923 82.4368 39.1387 81.4277 40.2129C80.4186 41.2546 79.5397 42.5892 78.791 44.2168C79.2467 43.9889 79.6374 43.7936 79.9629 43.6309C80.321 43.4681 80.5651 43.3867 80.6953 43.3867C80.7604 43.3867 80.8581 43.4518 80.9883 43.582C81.737 44.8516 82.6647 45.763 83.7715 46.3164C84.9108 46.8372 86.1803 47.0977 87.5801 47.0977C88.6868 47.0977 89.6309 46.9186 90.4121 46.5605C91.2259 46.1699 91.8932 45.6816 92.4141 45.0957C92.9349 44.5098 93.3092 43.875 93.5371 43.1914C93.765 42.4753 93.8789 41.7754 93.8789 41.0918C93.8789 39.627 93.5046 38.4225 92.7559 37.4785C92.0072 36.502 90.9818 36.0137 89.6797 36.0137ZM140.266 43.3867C140.298 44.526 140.201 45.9258 139.973 47.5859C139.745 49.2135 139.484 50.9714 139.191 52.8594C138.898 54.7148 138.622 56.6191 138.361 58.5723C138.101 60.5254 137.971 62.3646 137.971 64.0898C137.971 65.2292 138.052 66.3197 138.215 67.3613C138.378 68.3704 138.654 69.2493 139.045 69.998C139.273 70.4212 139.387 70.7956 139.387 71.1211C139.419 71.4466 139.403 71.7396 139.338 72C139.273 72.2279 139.208 72.4232 139.143 72.5859C139.077 72.7812 139.077 72.9603 139.143 73.123C139.208 73.2858 139.191 73.4648 139.094 73.6602C138.996 73.888 138.85 74.0833 138.654 74.2461C138.459 74.4414 138.231 74.5716 137.971 74.6367C137.743 74.7344 137.531 74.7181 137.336 74.5879C136.978 74.36 136.685 74.2298 136.457 74.1973C136.262 74.1647 136.083 74.1647 135.92 74.1973C135.79 74.2624 135.66 74.3275 135.529 74.3926C135.432 74.4577 135.301 74.4577 135.139 74.3926C134.585 74.0996 133.983 73.7578 133.332 73.3672C132.681 72.9766 132.258 72.5534 132.062 72.0977C131.932 71.9023 131.802 71.5768 131.672 71.1211C131.574 70.6654 131.477 70.1283 131.379 69.5098C131.314 68.8913 131.249 68.224 131.184 67.5078C131.118 66.7917 131.07 66.0918 131.037 65.4082C129.963 67.4264 128.807 69.1029 127.57 70.4375C126.366 71.7721 125.145 72.8301 123.908 73.6113C122.704 74.4251 121.499 74.9948 120.295 75.3203C119.123 75.6458 118.049 75.8086 117.072 75.8086C116.063 75.8086 115.168 75.6784 114.387 75.418C113.638 75.1576 113.052 74.8483 112.629 74.4902C111.034 72.8952 109.895 71.6094 109.211 70.6328C108.56 69.6237 108.267 68.8099 108.332 68.1914C108.495 66.1081 108.999 64.1875 109.846 62.4297C110.692 60.6719 111.75 59.0605 113.02 57.5957C114.289 56.0983 115.705 54.7637 117.268 53.5918C118.863 52.3874 120.474 51.3294 122.102 50.418C123.762 49.474 125.389 48.6927 126.984 48.0742C128.579 47.4232 130.028 46.9023 131.33 46.5117C131.265 44.7539 131.184 43.224 131.086 41.9219C131.021 40.5872 130.907 39.6107 130.744 38.9922C130.256 36.974 129.507 35.4766 128.498 34.5C127.489 33.4909 126.268 32.9863 124.836 32.9863C123.924 32.9863 122.997 33.3281 122.053 34.0117C121.141 34.6953 120.311 35.623 119.562 36.7949C118.814 37.9668 118.195 39.3177 117.707 40.8477C117.251 42.3776 117.007 43.9889 116.975 45.6816C116.975 46.1048 116.991 46.5117 117.023 46.9023C117.056 47.293 117.105 47.6999 117.17 48.123C117.202 48.3509 117.121 48.5137 116.926 48.6113C116.763 48.709 116.551 48.7904 116.291 48.8555C116.031 48.888 115.754 48.9206 115.461 48.9531C115.168 48.9857 114.924 49.0345 114.729 49.0996C114.566 49.1647 114.436 49.2135 114.338 49.2461C114.24 49.2461 114.143 49.2298 114.045 49.1973C113.947 49.1322 113.817 49.0345 113.654 48.9043C113.524 48.7741 113.329 48.6113 113.068 48.416C112.808 48.2207 112.531 48.0579 112.238 47.9277C111.978 47.7975 111.734 47.6836 111.506 47.5859C111.311 47.4883 111.132 47.4069 110.969 47.3418C110.839 47.2441 110.773 47.1302 110.773 47C110.773 44.9818 111.213 42.8984 112.092 40.75C113.003 38.6016 114.208 36.6484 115.705 34.8906C117.235 33.1003 118.993 31.6354 120.979 30.4961C122.997 29.3568 125.129 28.7871 127.375 28.7871C129.198 28.7871 130.777 29.0638 132.111 29.6172C133.446 30.1706 134.585 30.8867 135.529 31.7656C136.473 32.6445 137.238 33.6211 137.824 34.6953C138.443 35.7695 138.915 36.86 139.24 37.9668C139.598 39.041 139.842 40.0664 139.973 41.043C140.135 41.987 140.233 42.7682 140.266 43.3867ZM131.428 52.0781C130.451 52.4362 129.377 52.9082 128.205 53.4941C127.033 54.0801 125.845 54.7799 124.641 55.5938C123.436 56.375 122.232 57.2865 121.027 58.3281C119.823 59.3698 118.7 60.5254 117.658 61.7949C116.421 63.2598 115.526 64.5618 114.973 65.7012C114.419 66.8405 114.077 67.8171 113.947 68.6309C113.817 69.4121 113.85 70.0306 114.045 70.4863C114.24 70.9421 114.468 71.2188 114.729 71.3164C115.738 71.707 116.779 71.7559 117.854 71.4629C118.96 71.1374 120.051 70.584 121.125 69.8027C122.232 68.9889 123.29 68.0286 124.299 66.9219C125.34 65.7826 126.317 64.627 127.229 63.4551C128.14 62.2507 128.954 61.0788 129.67 59.9395C130.386 58.7676 130.972 57.7585 131.428 56.9121V52.0781ZM161.75 14.5781C161.75 14.7734 161.717 15.2943 161.652 16.1406C161.587 16.9544 161.49 18.0449 161.359 19.4121C161.262 20.7793 161.132 22.3743 160.969 24.1973C160.806 25.9876 160.643 27.9245 160.48 30.0078C162.531 29.7474 164.468 29.5521 166.291 29.4219C168.146 29.2591 169.709 29.1777 170.979 29.1777C171.402 29.1777 171.776 29.2591 172.102 29.4219C172.427 29.5846 172.688 29.7799 172.883 30.0078C173.111 30.2031 173.29 30.431 173.42 30.6914C173.55 30.9193 173.632 31.1146 173.664 31.2773C173.664 31.4401 173.68 31.6029 173.713 31.7656C173.745 31.8958 173.762 32.0423 173.762 32.2051C173.762 32.8561 173.469 33.5072 172.883 34.1582C172.329 34.8092 171.483 35.2161 170.344 35.3789L159.943 36.502C159.781 38.8457 159.634 41.2546 159.504 43.7285C159.374 46.2025 159.243 48.6764 159.113 51.1504C159.016 53.5918 158.934 56.0007 158.869 58.377C158.804 60.7533 158.771 62.9993 158.771 65.1152C158.771 66.4824 158.804 67.5892 158.869 68.4355C158.934 69.2819 158.967 69.8353 158.967 70.0957C158.967 70.6491 158.853 71.2025 158.625 71.7559C158.43 72.2767 158.186 72.7487 157.893 73.1719C157.632 73.6276 157.339 73.9857 157.014 74.2461C156.721 74.5391 156.477 74.6855 156.281 74.6855C155.109 74.6855 154.182 74.3112 153.498 73.5625C152.814 72.8464 152.294 71.8698 151.936 70.6328C151.61 69.3958 151.398 67.9798 151.301 66.3848C151.203 64.7897 151.154 63.1296 151.154 61.4043C151.154 57.3353 151.268 53.2663 151.496 49.1973C151.724 45.0957 152.049 41.1569 152.473 37.3809L146.369 38.1133C146.271 38.1133 146.174 38.1296 146.076 38.1621C145.979 38.1947 145.865 38.2109 145.734 38.2109C145.116 38.2109 144.628 38.0645 144.27 37.7715C143.879 37.4785 143.586 37.1367 143.391 36.7461C143.195 36.3555 143.081 35.9648 143.049 35.5742C142.984 35.151 142.951 34.8255 142.951 34.5977C142.951 34.1419 143.016 33.7188 143.146 33.3281C143.277 32.9375 143.521 32.6934 143.879 32.5957C144.562 32.3353 145.751 32.0586 147.443 31.7656C149.169 31.4401 151.105 31.1146 153.254 30.7891C153.612 28.1523 153.97 25.7435 154.328 23.5625C154.719 21.349 155.093 19.4447 155.451 17.8496C155.809 16.222 156.135 14.9688 156.428 14.0898C156.753 13.1784 157.03 12.7227 157.258 12.7227C157.323 12.7227 157.404 12.7389 157.502 12.7715C157.6 12.804 157.681 12.8203 157.746 12.8203C157.941 12.8203 158.088 12.7227 158.186 12.5273C158.316 12.2995 158.544 12.1855 158.869 12.1855C159.162 12.1855 159.471 12.2832 159.797 12.4785C160.155 12.6413 160.464 12.8529 160.725 13.1133C161.018 13.3737 161.262 13.6504 161.457 13.9434C161.652 14.2038 161.75 14.4154 161.75 14.5781ZM220.783 68.6797C220.881 68.9401 220.946 69.1517 220.979 69.3145C221.044 69.4772 221.076 69.64 221.076 69.8027C221.076 70.0957 220.946 70.2747 220.686 70.3398C220.458 70.3724 220.214 70.4212 219.953 70.4863C219.888 70.5189 219.823 70.6816 219.758 70.9746C219.693 71.235 219.595 71.528 219.465 71.8535C219.367 72.179 219.188 72.472 218.928 72.7324C218.7 72.9928 218.374 73.123 217.951 73.123C216.584 73.0254 215.51 72.7161 214.729 72.1953C213.947 71.707 213.361 71.0234 212.971 70.1445C212.58 69.2656 212.336 68.224 212.238 67.0195C212.141 65.7826 212.092 64.4154 212.092 62.918C212.092 61.1602 212.157 59.321 212.287 57.4004C212.45 55.4798 212.629 53.6081 212.824 51.7852C213.02 49.9622 213.182 48.2533 213.312 46.6582C213.475 45.0306 213.557 43.6471 213.557 42.5078C213.557 40.8477 213.41 39.5618 213.117 38.6504C212.857 37.7389 212.482 37.2832 211.994 37.2832C211.766 37.2832 211.18 37.9668 210.236 39.334C209.292 40.6686 208.153 42.7031 206.818 45.4375C205.516 48.1719 204.1 51.6061 202.57 55.7402C201.073 59.8743 199.641 64.7246 198.273 70.291C198.208 70.5189 198.176 70.763 198.176 71.0234C198.176 71.2839 198.16 71.528 198.127 71.7559C198.094 71.9512 198.013 72.1139 197.883 72.2441C197.785 72.4069 197.622 72.4883 197.395 72.4883C196.939 72.4883 196.581 72.3906 196.32 72.1953C196.06 72.0326 195.832 71.8535 195.637 71.6582C195.441 71.4303 195.262 71.235 195.1 71.0723C194.937 70.877 194.725 70.7793 194.465 70.7793C194.367 70.7793 194.286 70.8444 194.221 70.9746C194.156 71.1048 194.074 71.2676 193.977 71.4629C193.879 71.6257 193.765 71.7721 193.635 71.9023C193.505 72.0326 193.326 72.0977 193.098 72.0977C192.902 72.0977 192.691 72.0651 192.463 72C192.235 71.9023 192.007 71.6908 191.779 71.3652C191.551 71.0072 191.356 70.5026 191.193 69.8516C191.063 69.168 190.998 68.2565 190.998 67.1172V64.9199C190.998 64.4642 191.047 63.7643 191.145 62.8203C191.242 61.8438 191.34 60.7207 191.438 59.4512C191.568 58.1816 191.698 56.8145 191.828 55.3496C191.991 53.8522 192.121 52.3385 192.219 50.8086C192.349 49.2786 192.447 47.7812 192.512 46.3164C192.609 44.8516 192.658 43.5169 192.658 42.3125C192.658 38.6341 192.202 36.7949 191.291 36.7949C191.063 36.7949 190.803 36.8763 190.51 37.0391C190.217 37.2018 189.859 37.5436 189.436 38.0645C189.045 38.5527 188.573 39.2689 188.02 40.2129C187.499 41.1243 186.896 42.3613 186.213 43.9238C185.562 45.4538 184.797 47.3418 183.918 49.5879C183.072 51.8014 182.128 54.4707 181.086 57.5957C180.858 58.2793 180.598 59.2884 180.305 60.623C180.044 61.9251 179.8 63.2598 179.572 64.627C179.344 65.9941 179.149 67.2637 178.986 68.4355C178.856 69.5749 178.791 70.3236 178.791 70.6816C178.791 70.7793 178.612 70.9421 178.254 71.1699C177.928 71.3652 177.538 71.5605 177.082 71.7559C176.626 71.9512 176.154 72.1139 175.666 72.2441C175.21 72.4069 174.852 72.4883 174.592 72.4883C174.038 72.4883 173.615 72.3255 173.322 72C173.029 71.707 172.801 71.1536 172.639 70.3398C172.508 69.4935 172.427 68.3542 172.395 66.9219C172.395 65.457 172.395 63.5853 172.395 61.3066C172.395 60.7207 172.411 59.5651 172.443 57.8398C172.508 56.1146 172.606 54.1289 172.736 51.8828C172.867 49.6367 173.029 47.293 173.225 44.8516C173.42 42.3776 173.648 40.1152 173.908 38.0645C174.169 36.0137 174.478 34.321 174.836 32.9863C175.194 31.6517 175.601 30.9844 176.057 30.9844C176.285 30.9844 176.496 31.0658 176.691 31.2285C176.887 31.3913 177.066 31.5703 177.229 31.7656C177.391 31.9284 177.538 32.0911 177.668 32.2539C177.831 32.4167 177.993 32.498 178.156 32.498C178.286 32.498 178.417 32.4329 178.547 32.3027C178.71 32.1725 178.84 32.026 178.938 31.8633C179.068 31.668 179.182 31.5052 179.279 31.375C179.41 31.2448 179.507 31.1797 179.572 31.1797C179.67 31.1797 179.816 31.3424 180.012 31.668C180.207 31.9935 180.386 32.3841 180.549 32.8398C180.744 33.263 180.907 33.7188 181.037 34.207C181.2 34.6628 181.281 35.0208 181.281 35.2812C181.281 35.9323 181.216 36.86 181.086 38.0645C180.988 39.2689 180.858 40.6035 180.695 42.0684C180.565 43.5007 180.435 44.9655 180.305 46.4629C180.207 47.9603 180.158 49.3438 180.158 50.6133V50.8086C180.581 49.4089 181.07 47.9766 181.623 46.5117C182.209 45.0143 182.844 43.5658 183.527 42.166C184.211 40.7337 184.927 39.3828 185.676 38.1133C186.457 36.8438 187.271 35.737 188.117 34.793C188.964 33.849 189.826 33.1003 190.705 32.5469C191.584 31.9935 192.479 31.7168 193.391 31.7168C194.497 31.7168 195.441 31.9121 196.223 32.3027C197.036 32.6608 197.688 33.1816 198.176 33.8652C198.664 34.5163 199.022 35.2812 199.25 36.1602C199.478 37.0065 199.592 37.918 199.592 38.8945C199.592 39.7409 199.527 40.7174 199.396 41.8242C199.299 42.931 199.185 44.168 199.055 45.5352C198.924 46.8698 198.794 48.3509 198.664 49.9785C198.566 51.5736 198.501 53.3151 198.469 55.2031C198.892 54.0312 199.396 52.6315 199.982 51.0039C200.601 49.3438 201.268 47.6348 201.984 45.877C202.733 44.1191 203.514 42.3776 204.328 40.6523C205.174 38.9271 206.021 37.3809 206.867 36.0137C207.714 34.6465 208.56 33.5397 209.406 32.6934C210.285 31.847 211.115 31.4238 211.896 31.4238C212.124 31.4238 212.629 31.5052 213.41 31.668C214.224 31.7982 215.07 32.0098 215.949 32.3027C216.861 32.5632 217.707 32.9049 218.488 33.3281C219.27 33.7188 219.79 34.1745 220.051 34.6953C220.311 35.2487 220.539 36.0299 220.734 37.0391C220.962 38.0156 221.076 39.334 221.076 40.9941C221.076 42.459 220.962 44.2168 220.734 46.2676C220.539 48.2858 220.181 50.7272 219.66 53.5918C219.497 54.5358 219.383 55.4473 219.318 56.3262C219.286 57.2051 219.27 58.0677 219.27 58.9141C219.27 60.151 219.318 61.3066 219.416 62.3809C219.546 63.4551 219.693 64.4154 219.855 65.2617C220.018 66.1081 220.181 66.8405 220.344 67.459C220.507 68.0449 220.653 68.4518 220.783 68.6797ZM258.234 43.3867C258.267 44.526 258.169 45.9258 257.941 47.5859C257.714 49.2135 257.453 50.9714 257.16 52.8594C256.867 54.7148 256.59 56.6191 256.33 58.5723C256.07 60.5254 255.939 62.3646 255.939 64.0898C255.939 65.2292 256.021 66.3197 256.184 67.3613C256.346 68.3704 256.623 69.2493 257.014 69.998C257.242 70.4212 257.355 70.7956 257.355 71.1211C257.388 71.4466 257.372 71.7396 257.307 72C257.242 72.2279 257.176 72.4232 257.111 72.5859C257.046 72.7812 257.046 72.9603 257.111 73.123C257.176 73.2858 257.16 73.4648 257.062 73.6602C256.965 73.888 256.818 74.0833 256.623 74.2461C256.428 74.4414 256.2 74.5716 255.939 74.6367C255.712 74.7344 255.5 74.7181 255.305 74.5879C254.947 74.36 254.654 74.2298 254.426 74.1973C254.23 74.1647 254.051 74.1647 253.889 74.1973C253.758 74.2624 253.628 74.3275 253.498 74.3926C253.4 74.4577 253.27 74.4577 253.107 74.3926C252.554 74.0996 251.952 73.7578 251.301 73.3672C250.65 72.9766 250.227 72.5534 250.031 72.0977C249.901 71.9023 249.771 71.5768 249.641 71.1211C249.543 70.6654 249.445 70.1283 249.348 69.5098C249.283 68.8913 249.217 68.224 249.152 67.5078C249.087 66.7917 249.038 66.0918 249.006 65.4082C247.932 67.4264 246.776 69.1029 245.539 70.4375C244.335 71.7721 243.114 72.8301 241.877 73.6113C240.673 74.4251 239.468 74.9948 238.264 75.3203C237.092 75.6458 236.018 75.8086 235.041 75.8086C234.032 75.8086 233.137 75.6784 232.355 75.418C231.607 75.1576 231.021 74.8483 230.598 74.4902C229.003 72.8952 227.863 71.6094 227.18 70.6328C226.529 69.6237 226.236 68.8099 226.301 68.1914C226.464 66.1081 226.968 64.1875 227.814 62.4297C228.661 60.6719 229.719 59.0605 230.988 57.5957C232.258 56.0983 233.674 54.7637 235.236 53.5918C236.831 52.3874 238.443 51.3294 240.07 50.418C241.73 49.474 243.358 48.6927 244.953 48.0742C246.548 47.4232 247.997 46.9023 249.299 46.5117C249.234 44.7539 249.152 43.224 249.055 41.9219C248.99 40.5872 248.876 39.6107 248.713 38.9922C248.225 36.974 247.476 35.4766 246.467 34.5C245.458 33.4909 244.237 32.9863 242.805 32.9863C241.893 32.9863 240.965 33.3281 240.021 34.0117C239.11 34.6953 238.28 35.623 237.531 36.7949C236.783 37.9668 236.164 39.3177 235.676 40.8477C235.22 42.3776 234.976 43.9889 234.943 45.6816C234.943 46.1048 234.96 46.5117 234.992 46.9023C235.025 47.293 235.074 47.6999 235.139 48.123C235.171 48.3509 235.09 48.5137 234.895 48.6113C234.732 48.709 234.52 48.7904 234.26 48.8555C233.999 48.888 233.723 48.9206 233.43 48.9531C233.137 48.9857 232.893 49.0345 232.697 49.0996C232.535 49.1647 232.404 49.2135 232.307 49.2461C232.209 49.2461 232.111 49.2298 232.014 49.1973C231.916 49.1322 231.786 49.0345 231.623 48.9043C231.493 48.7741 231.298 48.6113 231.037 48.416C230.777 48.2207 230.5 48.0579 230.207 47.9277C229.947 47.7975 229.702 47.6836 229.475 47.5859C229.279 47.4883 229.1 47.4069 228.938 47.3418C228.807 47.2441 228.742 47.1302 228.742 47C228.742 44.9818 229.182 42.8984 230.061 40.75C230.972 38.6016 232.176 36.6484 233.674 34.8906C235.204 33.1003 236.962 31.6354 238.947 30.4961C240.965 29.3568 243.098 28.7871 245.344 28.7871C247.167 28.7871 248.745 29.0638 250.08 29.6172C251.415 30.1706 252.554 30.8867 253.498 31.7656C254.442 32.6445 255.207 33.6211 255.793 34.6953C256.411 35.7695 256.883 36.86 257.209 37.9668C257.567 39.041 257.811 40.0664 257.941 41.043C258.104 41.987 258.202 42.7682 258.234 43.3867ZM249.396 52.0781C248.42 52.4362 247.346 52.9082 246.174 53.4941C245.002 54.0801 243.814 54.7799 242.609 55.5938C241.405 56.375 240.201 57.2865 238.996 58.3281C237.792 59.3698 236.669 60.5254 235.627 61.7949C234.39 63.2598 233.495 64.5618 232.941 65.7012C232.388 66.8405 232.046 67.8171 231.916 68.6309C231.786 69.4121 231.818 70.0306 232.014 70.4863C232.209 70.9421 232.437 71.2188 232.697 71.3164C233.706 71.707 234.748 71.7559 235.822 71.4629C236.929 71.1374 238.02 70.584 239.094 69.8027C240.201 68.9889 241.258 68.0286 242.268 66.9219C243.309 65.7826 244.286 64.627 245.197 63.4551C246.109 62.2507 246.923 61.0788 247.639 59.9395C248.355 58.7676 248.941 57.7585 249.396 56.9121V52.0781ZM276.838 30.9844C276.773 31.2122 276.724 31.668 276.691 32.3516C276.659 33.0352 276.61 33.8815 276.545 34.8906C277.945 34.5 279.377 34.1908 280.842 33.9629C282.307 33.735 283.804 33.6211 285.334 33.6211C287.027 33.6211 288.719 33.8164 290.412 34.207C292.105 34.5651 293.684 35.1999 295.148 36.1113C296.288 36.7949 297.248 37.8854 298.029 39.3828C298.843 40.8802 299.51 42.4915 300.031 44.2168C300.324 45.2259 300.617 46.349 300.91 47.5859C301.203 48.7904 301.35 50.125 301.35 51.5898C301.35 52.8268 301.187 54.1126 300.861 55.4473C300.568 56.7819 300.031 58.1654 299.25 59.5977C298.469 60.9974 297.411 62.446 296.076 63.9434C294.742 65.4082 293.033 66.8893 290.949 68.3867C288.931 69.8516 287.124 70.9746 285.529 71.7559C283.967 72.5046 282.632 73.0254 281.525 73.3184C280.419 73.6113 279.556 73.7415 278.938 73.709C278.352 73.709 278.01 73.6764 277.912 73.6113C277.619 73.416 277.326 73.0417 277.033 72.4883C276.74 71.9674 276.333 71.3978 275.812 70.7793C275.65 70.584 275.503 70.3887 275.373 70.1934C275.243 69.9655 275.096 69.7051 274.934 69.4121C274.836 72.5371 274.755 75.597 274.689 78.5918C274.657 81.5866 274.641 84.3861 274.641 86.9902C274.641 88.6178 274.657 90.1315 274.689 91.5312C274.722 92.9635 274.771 94.2493 274.836 95.3887C274.836 95.8118 274.852 96.2188 274.885 96.6094C274.95 97.0326 274.966 97.4069 274.934 97.7324C274.934 98.0579 274.868 98.3184 274.738 98.5137C274.608 98.709 274.364 98.8066 274.006 98.8066C273.355 98.8066 272.85 98.9531 272.492 99.2461C272.167 99.5716 271.776 100.06 271.32 100.711C271.06 101.004 270.783 101.215 270.49 101.346C270.197 101.508 269.888 101.508 269.562 101.346C269.27 101.215 268.96 100.906 268.635 100.418C268.342 99.9622 268.065 99.2624 267.805 98.3184C267.707 97.9277 267.609 97.4069 267.512 96.7559C267.447 96.1374 267.382 95.3398 267.316 94.3633C267.284 93.4193 267.251 92.2637 267.219 90.8965C267.219 89.5618 267.219 87.9668 267.219 86.1113L267.414 69.2168C267.479 64.9525 267.642 60.8021 267.902 56.7656C268.163 52.7292 268.472 48.9368 268.83 45.3887C268.016 45.7142 267.268 45.9583 266.584 46.1211C265.9 46.2839 265.477 46.3164 265.314 46.2188C264.989 46.0885 264.777 45.9421 264.68 45.7793C264.582 45.6165 264.517 45.4701 264.484 45.3398C264.452 45.1771 264.403 45.0469 264.338 44.9492C264.305 44.819 264.175 44.7376 263.947 44.7051C263.719 44.6725 263.524 44.5749 263.361 44.4121C263.199 44.2493 263.085 44.0866 263.02 43.9238C262.987 43.7611 263.003 43.6146 263.068 43.4844C263.166 43.3216 263.345 43.224 263.605 43.1914C263.833 43.1589 263.866 43.0775 263.703 42.9473C263.54 42.7845 263.378 42.5892 263.215 42.3613C263.085 42.1009 263.052 41.7917 263.117 41.4336C263.182 41.043 263.589 40.6035 264.338 40.1152C264.729 39.7897 265.412 39.3828 266.389 38.8945C267.365 38.3737 268.537 37.804 269.904 37.1855C270.262 34.6465 270.62 32.5794 270.979 30.9844C271.369 29.3568 271.711 28.3639 272.004 28.0059C272.167 27.8431 272.281 27.6966 272.346 27.5664C272.411 27.4362 272.476 27.3223 272.541 27.2246C272.606 27.127 272.688 27.0456 272.785 26.9805C272.883 26.9154 273.062 26.8503 273.322 26.7852C273.55 26.7526 273.745 26.8014 273.908 26.9316C274.071 27.0618 274.217 27.2409 274.348 27.4688C274.51 27.6641 274.673 27.8594 274.836 28.0547C274.999 28.25 275.194 28.3639 275.422 28.3965C275.878 28.4616 276.236 28.7057 276.496 29.1289C276.789 29.5195 276.903 30.138 276.838 30.9844ZM286.213 40.5059C284.748 40.5059 283.186 40.6686 281.525 40.9941C279.865 41.3197 278.026 41.8568 276.008 42.6055L275.129 63.7969C275.422 63.8945 275.747 63.9596 276.105 63.9922C276.464 63.9922 276.87 63.9922 277.326 63.9922C278.4 63.9922 279.637 63.8457 281.037 63.5527C282.469 63.2598 283.918 62.8203 285.383 62.2344C286.848 61.6159 288.296 60.8835 289.729 60.0371C291.161 59.1582 292.43 58.1491 293.537 57.0098C294.676 55.8704 295.588 54.6009 296.271 53.2012C296.955 51.8014 297.313 50.2715 297.346 48.6113C297.378 47.6348 297.15 46.6745 296.662 45.7305C296.206 44.7539 295.507 43.875 294.562 43.0938C293.651 42.3125 292.495 41.694 291.096 41.2383C289.696 40.75 288.068 40.5059 286.213 40.5059Z" fill="white"/>
</g>
<defs>
<filter id="filter0_d_309_2" x="0.378906" y="0.90625" width="306.971" height="113.684" filterUnits="userSpaceOnUse" color-interpolation-filters="sRGB">
<feFlood flood-opacity="0" result="BackgroundImageFix"/>
<feColorMatrix in="SourceAlpha" type="matrix" values="0 0 0 0 0 0 0 0 0 0 0 0 0 0 0 0 0 0 127 0" result="hardAlpha"/>
<feOffset dy="7"/>
<feGaussianBlur stdDeviation="3"/>
<feComposite in2="hardAlpha" operator="out"/>
<feColorMatrix type="matrix" values="0 0 0 0 0 0 0 0 0 0 0 0 0 0 0 0 0 0 0.6 0"/>
<feBlend mode="normal" in2="BackgroundImageFix" result="effect1_dropShadow_309_2"/>
<feBlend mode="normal" in="SourceGraphic" in2="effect1_dropShadow_309_2" result="shape"/>
</filter>
</defs>
</svg>
