<svg width="409" height="102" viewBox="0 0 409 102" fill="none" xmlns="http://www.w3.org/2000/svg">
<g clip-path="url(#clip0_0_3)">
<path d="M27.1049 45.7395V52.5158C27.1049 53.4509 27.8639 54.2098 28.799 54.2098C29.7341 54.2098 30.493 53.4509 30.493 52.5158V45.7395C30.493 44.8044 29.7341 44.0455 28.799 44.0455C27.8639 44.0455 27.1049 44.8044 27.1049 45.7395Z" fill="white"/>
<path d="M13.5525 45.7395V52.5158C13.5525 53.4509 14.3114 54.2098 15.2465 54.2098C16.1816 54.2098 16.9406 53.4509 16.9406 52.5158V45.7395C16.9406 44.8044 16.1816 44.0455 15.2465 44.0455C14.3114 44.0455 13.5525 44.8044 13.5525 45.7395Z" fill="white"/>
<path d="M8.47027 52.5158C9.40539 52.5158 10.1643 51.7568 10.1643 50.8217V37.7385L15.0043 29.6714C15.1635 29.4071 15.2465 29.1056 15.2465 28.799V20.017C17.2133 19.3156 18.6346 17.4522 18.6346 15.2465C18.6346 12.4445 16.3544 10.1643 13.5524 10.1643C10.7505 10.1643 8.47027 12.4445 8.47027 15.2465C8.47027 17.4522 9.89159 19.3156 11.8584 20.017V28.3297L7.01846 36.3968C6.85922 36.6611 6.77621 36.9626 6.77621 37.2693V50.8217C6.77621 51.7568 7.53515 52.5158 8.47027 52.5158ZM13.5524 13.5525C14.4859 13.5525 15.2465 14.3131 15.2465 15.2465C15.2465 16.1799 14.4859 16.9406 13.5524 16.9406C12.619 16.9406 11.8584 16.1799 11.8584 15.2465C11.8584 14.3131 12.619 13.5525 13.5524 13.5525Z" fill="white"/>
<path d="M30.493 28.799C30.493 31.0046 31.9144 32.8681 33.8812 33.5694V52.5158C33.8812 53.4509 34.6401 54.2098 35.5752 54.2098C36.5103 54.2098 37.2693 53.4509 37.2693 52.5158V33.5694C39.2361 32.8681 40.6574 31.0046 40.6574 28.799C40.6574 26.5933 39.2361 24.7298 37.2693 24.0285V17.8994L44.5148 13.5525H64.691C65.206 14.9805 66.3325 16.102 67.7623 16.6119V19.6426L63.1782 24.2115C62.8597 24.5283 62.6801 24.9602 62.6801 25.4109V32.1871H52.5158C51.5807 32.1871 50.8217 32.946 50.8217 33.8811V66.0682H47.4336C46.4985 66.0682 45.7396 66.8272 45.7396 67.7623C45.7396 72.4328 49.5393 76.2326 54.2098 76.2326H62.6801V83.0088C62.6801 83.4594 62.8597 83.8914 63.1782 84.2082L67.7623 88.7771V91.8077C65.7955 92.5091 64.3742 94.3725 64.3742 96.5782C64.3742 99.3802 66.6544 101.66 69.4564 101.66C72.2583 101.66 74.5385 99.3802 74.5385 96.5782C74.5385 94.3725 73.1172 92.5091 71.1504 91.8077V88.074C71.1504 87.6234 70.9708 87.1914 70.6524 86.8746L66.0682 82.3058V76.2326H77.9266V83.0088C77.9266 83.4594 78.1062 83.8914 78.4247 84.2082L83.0258 88.794V91.8077C81.059 92.5091 79.6376 94.3725 79.6376 96.5782C79.6376 99.3802 81.9178 101.66 84.7198 101.66C87.5218 101.66 89.802 99.3802 89.802 96.5782C89.802 94.3725 88.3807 92.5091 86.4139 91.8077V88.091C86.4139 87.6404 86.2343 87.2084 85.9158 86.8916L81.3148 82.3058V76.2326H93.1732C97.8437 76.2326 101.643 72.4328 101.643 67.7623C101.643 66.8272 100.885 66.0682 99.9494 66.0682H98.2553V33.8811C98.2553 32.946 97.4964 32.1871 96.5613 32.1871H81.3148V26.1139L85.9158 21.5281C86.2343 21.2096 86.4139 20.7776 86.4139 20.3287V16.6119C88.3807 15.9106 89.802 14.0471 89.802 11.8415C89.802 9.62902 88.3739 7.76386 86.3969 7.06591V1.69406C86.3969 0.758938 85.638 0 84.7029 0C83.7678 0 83.0088 0.758938 83.0088 1.69406V7.07777C81.0505 7.78419 79.6376 9.64257 79.6376 11.8432C79.6376 14.0488 81.059 15.9123 83.0258 16.6136V19.6273L78.4247 24.2132C78.1062 24.5283 77.9266 24.9602 77.9266 25.4109V32.1871H66.0682V26.1139L70.6524 21.545C70.9708 21.2265 71.1504 20.7946 71.1504 20.3456V16.6119C73.1172 15.9106 74.5385 14.0471 74.5385 11.8415C74.5385 9.03949 72.2583 6.75929 69.4564 6.75929C67.2439 6.75929 65.3788 8.18738 64.6808 10.1643H44.0455C43.7389 10.1643 43.4373 10.2474 43.1731 10.4066L34.7028 15.4888C34.1929 15.7937 33.8812 16.346 33.8812 16.9406V24.0285C31.9144 24.7298 30.493 26.5933 30.493 28.799ZM69.4564 98.2723C68.5229 98.2723 67.7623 97.5116 67.7623 96.5782C67.7623 95.6448 68.5229 94.8841 69.4564 94.8841C70.3898 94.8841 71.1504 95.6448 71.1504 96.5782C71.1504 97.5116 70.3898 98.2723 69.4564 98.2723ZM84.7198 98.2723C83.7864 98.2723 83.0258 97.5116 83.0258 96.5782C83.0258 95.6448 83.7864 94.8841 84.7198 94.8841C85.6532 94.8841 86.4139 95.6448 86.4139 96.5782C86.4139 97.5116 85.6532 98.2723 84.7198 98.2723ZM84.7198 13.5355C83.7864 13.5355 83.0258 12.7749 83.0258 11.8415C83.0258 10.925 83.761 10.1847 84.6707 10.1576C84.6825 10.1576 84.691 10.1643 84.7029 10.1643C84.7198 10.1643 84.7351 10.1542 84.752 10.1542C85.6702 10.1728 86.4139 10.9199 86.4139 11.8415C86.4139 12.7766 85.6532 13.5355 84.7198 13.5355ZM93.1732 72.8445H54.2098C52.0008 72.8445 50.117 71.4282 49.4174 69.4563H97.964C97.266 71.4282 95.3822 72.8445 93.1732 72.8445ZM94.8672 66.0682H54.2098V35.5752H94.8672V66.0682ZM69.4564 10.1474C70.3898 10.1474 71.1504 10.908 71.1504 11.8415C71.1504 12.7749 70.3898 13.5355 69.4564 13.5355C68.5229 13.5355 67.7623 12.7749 67.7623 11.8415C67.7623 10.908 68.5229 10.1474 69.4564 10.1474ZM35.5752 30.493C34.6418 30.493 33.8812 29.7324 33.8812 28.799C33.8812 27.8655 34.6418 27.1049 35.5752 27.1049C36.5086 27.1049 37.2693 27.8655 37.2693 28.799C37.2693 29.7324 36.5086 30.493 35.5752 30.493Z" fill="white"/>
<path d="M16.9406 42.3514C16.9406 44.5571 18.3619 46.4206 20.3287 47.1219V52.5158C20.3287 53.4509 21.0876 54.2098 22.0228 54.2098C22.9579 54.2098 23.7168 53.4509 23.7168 52.5158V47.1219C25.6836 46.4206 27.1049 44.5571 27.1049 42.3514C27.1049 40.1458 25.6836 38.2823 23.7168 37.581V29.2682L28.5567 21.2011C28.716 20.9369 28.799 20.6353 28.799 20.3287V9.85264C30.7658 9.1513 32.1871 7.28783 32.1871 5.08217C32.1871 2.2802 29.9069 0 27.1049 0C24.303 0 22.0228 2.2802 22.0228 5.08217C22.0228 7.28783 23.4441 9.1513 25.4109 9.85264V19.8594L20.5709 27.9265C20.4117 28.1908 20.3287 28.4923 20.3287 28.799V37.581C18.3619 38.2823 16.9406 40.1458 16.9406 42.3514ZM27.1049 3.38811C28.0384 3.38811 28.799 4.14875 28.799 5.08217C28.799 6.0156 28.0384 6.77623 27.1049 6.77623C26.1715 6.77623 25.4109 6.0156 25.4109 5.08217C25.4109 4.14875 26.1715 3.38811 27.1049 3.38811ZM22.0228 44.0455C21.0893 44.0455 20.3287 43.2849 20.3287 42.3514C20.3287 41.418 21.0893 40.6574 22.0228 40.6574C22.9562 40.6574 23.7168 41.418 23.7168 42.3514C23.7168 43.2849 22.9562 44.0455 22.0228 44.0455Z" fill="white"/>
<path d="M7.87737 101.643H36.1681C40.5117 101.643 44.0455 98.1096 44.0455 93.766C44.0455 91.8856 43.3713 90.0645 42.1481 88.6398L30.493 75.0399V59.292C30.493 58.3569 29.7341 57.5979 28.799 57.5979H15.2465C14.3114 57.5979 13.5525 58.3569 13.5525 59.292V75.0399L1.89734 88.6381C0.674235 90.0662 0 91.8856 0 93.766C0 98.1096 3.5338 101.643 7.87737 101.643ZM36.1681 98.2553H7.87737C5.40235 98.2553 3.38811 96.2411 3.38811 93.766C3.38811 92.6954 3.77267 91.657 4.46892 90.8455L5.44131 89.7122C5.54465 89.6902 5.64968 89.6918 5.74963 89.6478L8.44318 88.4925C13.9506 86.1343 20.0746 85.9903 25.6819 88.096C28.6685 89.2175 31.8025 89.785 34.9958 89.785H38.6669L39.5766 90.8455C40.2728 91.657 40.6574 92.6954 40.6574 93.766C40.6574 96.2411 38.6431 98.2553 36.1681 98.2553ZM16.5323 76.7696C16.7966 76.463 16.9406 76.0716 16.9406 75.6684V60.986H27.1049V75.6684C27.1049 76.0733 27.2489 76.4646 27.5132 76.7713L35.7632 86.3969H34.9958C32.2108 86.3969 29.4766 85.9022 26.8711 84.9231C21.4214 82.88 15.5514 82.7056 10.0441 84.3386L16.5323 76.7696Z" fill="white"/>
<path d="M77.9266 47.4336V50.8217H74.5385V40.6574C74.5385 39.7223 73.7796 38.9633 72.8444 38.9633H66.0682C65.1331 38.9633 64.3742 39.7223 64.3742 40.6574V47.4336H59.292C58.3569 47.4336 57.5979 48.1925 57.5979 49.1277V62.6801C57.5979 63.6152 58.3569 64.3742 59.292 64.3742H91.4791C92.4142 64.3742 93.1731 63.6152 93.1731 62.6801C93.1731 61.745 92.4142 60.9861 91.4791 60.9861H88.091V47.4336C88.091 46.4985 87.332 45.7395 86.3969 45.7395H79.6207C78.6856 45.7395 77.9266 46.4985 77.9266 47.4336ZM77.9266 54.2098V60.9861H74.5385V54.2098H77.9266ZM64.3742 60.9861H60.986V50.8217H64.3742V60.9861ZM67.7623 49.1277V42.3514H71.1504V60.9861H67.7623V49.1277ZM81.3147 49.1277H84.7028V60.9861H81.3147V52.5158V49.1277Z" fill="white"/>
<path d="M167.884 21.9348C167.651 22.2444 167.496 22.6315 167.496 23.0961V60.8004C167.496 61.9617 168.038 62.5036 168.967 62.5036L170.206 62.4262C170.671 62.4262 170.98 62.5036 171.29 62.8133C171.6 63.0456 171.755 63.4327 171.755 63.8198C171.755 64.2069 171.6 64.5166 171.29 64.8263C171.058 65.0586 170.748 65.2134 170.361 65.2134H152.864C152.477 65.2134 152.167 65.0586 151.935 64.8263C151.625 64.5166 151.47 64.2069 151.47 63.8198C151.47 63.4327 151.625 63.0456 151.935 62.8133C152.167 62.5036 152.554 62.4262 152.941 62.4262L155.341 62.5036C156.27 62.5036 156.812 61.8843 156.812 60.8004V44.0773C156.812 43.7676 156.657 43.4579 156.425 43.2257C156.193 42.9934 155.883 42.916 155.573 42.916H139.779C139.47 42.916 139.16 42.9934 138.928 43.2257C138.696 43.4579 138.541 43.7676 138.541 44.0773V60.8004C138.541 61.8843 139.083 62.5036 140.167 62.5036L142.489 62.4262C142.876 62.4262 143.263 62.5036 143.496 62.8133C143.805 63.0456 143.96 63.4327 143.96 63.8198C143.96 64.2069 143.805 64.5166 143.573 64.8263C143.263 65.0586 142.954 65.2134 142.567 65.2134H125.069C124.682 65.2134 124.295 65.0586 124.063 64.8263C123.753 64.5166 123.598 64.2069 123.598 63.8198C123.598 63.4327 123.753 63.0456 124.063 62.8133C124.373 62.5036 124.682 62.4262 125.147 62.4262L126.386 62.5036H126.54C127.392 62.5036 127.857 61.8843 127.857 60.8004V23.0961C127.857 22.0122 127.315 21.4702 126.386 21.4702L125.147 21.5476C124.682 21.5476 124.373 21.4702 124.063 21.1605C123.753 20.9283 123.598 20.5412 123.598 20.1541C123.598 19.7669 123.753 19.4573 124.063 19.1476C124.295 18.9153 124.682 18.7605 125.069 18.7605H142.567C142.954 18.7605 143.263 18.9153 143.573 19.1476C143.805 19.4573 143.96 19.7669 143.96 20.1541C143.96 20.6186 143.805 20.9283 143.496 21.1605C143.263 21.4702 142.876 21.6251 142.489 21.5476L140.167 21.4702H140.012C139.47 21.4702 139.16 21.6251 138.928 21.9348C138.696 22.2444 138.541 22.6315 138.541 23.0961V38.9675C138.541 39.2772 138.696 39.5869 138.928 39.8191C139.16 40.0514 139.47 40.1288 139.779 40.1288H155.573C155.883 40.1288 156.193 40.0514 156.425 39.8191C156.657 39.5869 156.812 39.2772 156.812 38.9675V23.0961C156.812 22.0122 156.27 21.4702 155.341 21.4702L152.941 21.5476C152.554 21.6251 152.167 21.4702 151.935 21.1605C151.625 20.9283 151.47 20.6186 151.47 20.1541C151.47 19.7669 151.625 19.4573 151.935 19.1476C152.167 18.9153 152.477 18.7605 152.864 18.7605H170.361C170.748 18.7605 171.058 18.9153 171.29 19.1476C171.6 19.4573 171.755 19.7669 171.755 20.1541C171.755 20.5412 171.6 20.9283 171.29 21.1605C170.98 21.4702 170.671 21.5476 170.206 21.5476L168.967 21.4702H168.813C168.425 21.4702 168.116 21.6251 167.884 21.9348ZM204.504 35.2513C201.639 32.6189 197.846 31.3802 193.2 31.3802C187.316 31.3802 182.903 32.7738 179.961 35.6384C176.942 38.4255 175.471 42.8386 175.471 48.8C175.471 54.6841 176.942 59.0197 179.806 61.8069C182.671 64.594 187.161 65.9876 193.355 65.9876C196.994 65.9876 200.168 65.2908 202.801 63.8972C205.046 62.6585 206.749 61.1101 207.91 59.0197C208.065 58.71 208.143 58.4003 208.065 58.0906C207.988 57.7809 207.833 57.5487 207.601 57.3164C207.214 57.0841 206.904 57.0067 206.594 57.0841C206.207 57.1616 205.975 57.3938 205.743 57.7035C204.891 58.9423 203.807 60.0262 202.491 60.9552C200.71 62.194 198.62 62.8133 196.22 62.8133C192.968 62.7359 190.491 61.5746 188.865 59.2519C187.549 57.3164 186.697 54.6841 186.465 51.4324C186.465 50.7356 186.62 50.1936 187.084 49.7291C187.471 49.2646 188.013 49.0323 188.633 49.0323H205.898C206.749 49.0323 207.369 48.7226 207.988 48.1807C208.53 47.6387 208.84 46.9419 208.84 46.1677C208.762 41.445 207.291 37.8062 204.504 35.2513ZM188.013 37.4965C189.097 35.1738 190.723 34.0125 192.968 34.0125C194.826 34.0125 196.22 34.7867 197.071 36.4126C197.923 38.0384 198.388 40.5159 198.388 43.9225C198.388 44.8515 198.233 45.5483 198.001 45.9354C197.691 46.2451 197.304 46.4774 196.839 46.4774H188.71C188.091 46.4774 187.549 46.2451 187.161 45.7806C186.697 45.3161 186.542 44.7741 186.542 44.0773C186.697 41.445 187.239 39.2772 188.013 37.4965ZM246.466 63.8972C246.466 63.5875 246.312 63.2779 246.079 62.9682C245.77 62.7359 245.46 62.6585 245.073 62.6585L243.911 62.7359C243.215 62.7359 242.828 62.194 242.905 61.2649V41.6772C242.905 34.7867 238.027 31.3802 228.427 31.3802C224.014 31.3802 220.453 32.1544 217.898 33.6254C215.266 35.0964 214.027 37.1094 214.027 39.5869C214.027 40.903 214.491 41.9869 215.343 42.8386C216.272 43.6902 217.433 44.1547 218.904 44.1547C220.143 44.1547 221.15 43.8451 222.001 43.2257C222.775 42.6063 223.163 41.6772 223.163 40.5159C223.163 40.2062 223.085 39.7417 222.853 38.9675C222.621 38.503 222.466 37.8836 222.466 37.1868C222.466 36.3352 222.853 35.5609 223.627 34.9416C224.324 34.3222 225.64 34.0125 227.498 34.0125C229.589 34.0125 230.982 34.5545 231.679 35.6384C232.298 36.7223 232.685 38.2707 232.685 40.2062V43.9999C232.685 44.4644 232.531 44.8515 232.221 45.1612C231.834 45.4709 231.447 45.7032 230.982 45.7032C224.711 45.858 219.988 46.7096 216.969 48.4129C213.64 50.1936 212.014 53.0582 212.014 56.7744C212.014 59.7165 212.788 61.8843 214.491 63.3553C216.195 64.8263 218.672 65.6005 221.924 65.6005C224.401 65.6005 226.414 65.0586 228.04 64.0521C229.666 63.0456 230.905 62.0391 231.679 61.1101C231.834 60.9552 232.066 60.8778 232.298 61.0326C232.531 61.1101 232.608 61.3423 232.608 61.5746V62.3488C232.608 63.2004 232.918 63.8198 233.46 64.3618C234.002 64.9037 234.698 65.2134 235.473 65.2134H245.15C245.537 65.2134 245.847 65.0586 246.079 64.8263C246.312 64.594 246.466 64.2843 246.466 63.8972ZM230.518 58.9423C229.356 60.3358 227.963 61.0326 226.337 61.0326C223.859 61.0326 222.543 59.3294 222.543 55.8454C222.543 53.3679 223.395 51.5098 224.943 50.271C226.259 49.2646 228.195 48.6452 230.827 48.4903C231.292 48.4129 231.756 48.5678 232.143 48.9549C232.531 49.2646 232.685 49.6517 232.685 50.1936V53.5227C232.376 55.768 231.679 57.5487 230.518 58.9423ZM259.783 32.1544V27.4317C259.783 26.58 259.473 25.8058 258.854 25.1865C258.234 24.4897 257.46 24.18 256.609 24.18C255.138 24.18 254.131 24.9542 253.512 26.5026C253.125 27.6639 252.738 28.6704 252.273 29.3672C251.654 30.4511 250.802 31.1479 249.718 31.535C248.866 31.8447 247.628 32.077 246.157 32.1544C245.847 32.1544 245.537 32.3092 245.305 32.5415C245.073 32.7738 244.918 33.006 244.918 33.3931C244.918 33.7028 245.073 34.0125 245.305 34.2448C245.537 34.477 245.847 34.6319 246.234 34.6319H249.641V58.3229C249.641 60.9552 250.57 62.8908 252.35 64.0521C254.131 65.2908 256.686 65.9102 259.783 65.9102C262.028 65.9102 263.809 65.5231 265.202 64.7489C266.286 64.2069 267.215 63.3553 267.835 62.2714C267.99 61.9617 268.067 61.652 267.912 61.3423C267.835 61.0326 267.68 60.8004 267.37 60.6455C267.061 60.4907 266.751 60.4133 266.519 60.4907C266.209 60.5681 265.977 60.7229 265.744 61.0326C265.435 61.4972 265.125 61.8843 264.66 62.194C263.964 62.7359 263.344 63.0456 262.725 63.0456C261.718 63.0456 260.944 62.7359 260.48 62.1165C260.015 61.4972 259.783 60.2584 259.783 58.4777V34.6319H266.286C266.596 34.6319 266.906 34.477 267.138 34.2448C267.37 34.0125 267.525 33.7028 267.525 33.3931C267.525 33.0835 267.37 32.7738 267.138 32.5415C266.906 32.2318 266.596 32.1544 266.286 32.1544H259.783ZM333.875 63.8972C333.875 63.5875 333.721 63.2779 333.488 62.9682C333.179 62.7359 332.869 62.6585 332.482 62.6585L331.243 62.7359C330.624 62.7359 330.237 62.194 330.237 61.2649V42.5289C330.237 38.6578 329.54 35.8706 327.991 34.0899C326.443 32.2318 324.043 31.3802 320.714 31.3802C317.849 31.3802 315.372 32.077 313.281 33.4706C311.888 34.477 310.726 35.7158 309.797 37.1868C309.565 37.4965 309.255 37.6513 308.791 37.6513C308.404 37.5739 308.171 37.3416 308.017 36.9545C307.475 35.4061 306.7 34.1674 305.694 33.3157C304.223 31.9996 302.055 31.3802 299.19 31.3802C296.403 31.3802 294.003 32.077 291.99 33.3931C290.752 34.2448 289.668 35.3287 288.739 36.5674C288.506 36.8771 288.197 36.9545 287.887 36.8771C287.5 36.7223 287.345 36.49 287.345 36.1029V34.7867C287.268 34.0125 287.035 33.3931 286.571 32.9286C286.106 32.3867 285.487 32.1544 284.79 32.1544H274.725C274.338 32.1544 274.106 32.2318 273.796 32.5415C273.564 32.7738 273.487 33.0835 273.487 33.3931C273.487 33.7802 273.564 34.0125 273.874 34.3222C274.106 34.5545 274.416 34.6319 274.803 34.6319L276.041 34.5545C276.738 34.7093 277.048 35.2513 277.048 36.1029V61.2649C277.048 62.0391 276.738 62.5811 276.041 62.7359L274.803 62.6585C274.416 62.6585 274.106 62.7359 273.874 62.9682C273.564 63.2779 273.487 63.5875 273.487 63.8972C273.487 64.2843 273.564 64.594 273.874 64.8263C274.106 65.0586 274.416 65.2134 274.725 65.2134H289.745C290.132 65.2134 290.442 65.0586 290.674 64.8263C290.906 64.594 291.061 64.2843 291.061 63.8972C291.061 63.5875 290.906 63.2779 290.674 62.9682C290.364 62.7359 290.055 62.6585 289.668 62.6585L288.274 62.7359C287.577 62.8133 287.268 62.2714 287.268 61.2649V48.6452C287.422 45.858 287.887 43.3805 288.816 41.3676C289.668 39.3546 290.752 37.7287 291.913 36.6448C293.152 35.5609 294.313 35.019 295.397 35.019C296.713 35.019 297.565 35.5609 297.952 36.6448C298.416 37.7287 298.571 39.6643 298.571 42.4515V61.2649C298.571 62.0391 298.261 62.5811 297.565 62.7359L296.171 62.6585C295.784 62.6585 295.474 62.7359 295.165 62.9682C294.932 63.2779 294.777 63.5875 294.777 63.8972C294.777 64.2843 294.932 64.594 295.165 64.8263C295.397 65.0586 295.707 65.2134 296.094 65.2134H311.268C311.578 65.2134 311.888 65.0586 312.12 64.8263C312.43 64.594 312.507 64.2843 312.507 63.8972C312.507 63.5875 312.43 63.2779 312.12 62.9682C311.888 62.7359 311.578 62.6585 311.191 62.6585L309.797 62.7359C309.1 62.7359 308.791 62.194 308.791 61.2649V49.4194C308.868 46.4774 309.333 43.9225 310.184 41.6772C311.113 39.5094 312.12 37.8836 313.436 36.7223C314.675 35.5609 315.914 35.019 317.075 35.019C318.314 35.019 319.088 35.5609 319.475 36.7223C319.862 37.8836 320.094 39.7417 320.094 42.4515V61.2649C320.094 62.0391 319.707 62.5811 319.088 62.7359L317.617 62.6585C317.23 62.6585 316.92 62.7359 316.688 62.9682C316.378 63.2779 316.301 63.5875 316.301 63.8972C316.301 64.2843 316.378 64.594 316.61 64.8263C316.92 65.0586 317.23 65.2134 317.539 65.2134H332.559C332.946 65.2134 333.256 65.0586 333.488 64.8263C333.721 64.594 333.875 64.2843 333.875 63.8972ZM370.264 63.8972C370.264 63.5875 370.109 63.2779 369.876 62.9682C369.567 62.7359 369.257 62.6585 368.87 62.6585L367.709 62.7359C367.012 62.7359 366.625 62.194 366.702 61.2649V41.6772C366.702 34.7867 361.825 31.3802 352.224 31.3802C347.811 31.3802 344.25 32.1544 341.695 33.6254C339.063 35.0964 337.824 37.1094 337.824 39.5869C337.824 40.903 338.288 41.9869 339.14 42.8386C340.069 43.6902 341.23 44.1547 342.701 44.1547C343.94 44.1547 344.947 43.8451 345.798 43.2257C346.572 42.6063 346.96 41.6772 346.96 40.5159C346.96 40.2062 346.882 39.7417 346.65 38.9675C346.418 38.503 346.263 37.8836 346.263 37.1868C346.263 36.3352 346.65 35.5609 347.424 34.9416C348.121 34.3222 349.437 34.0125 351.295 34.0125C353.386 34.0125 354.779 34.5545 355.476 35.6384C356.095 36.7223 356.482 38.2707 356.482 40.2062V43.9999C356.482 44.4644 356.328 44.8515 356.018 45.1612C355.631 45.4709 355.244 45.7032 354.779 45.7032C348.508 45.858 343.785 46.7096 340.766 48.4129C337.437 50.1936 335.811 53.0582 335.811 56.7744C335.811 59.7165 336.585 61.8843 338.288 63.3553C339.992 64.8263 342.469 65.6005 345.721 65.6005C348.198 65.6005 350.211 65.0586 351.837 64.0521C353.463 63.0456 354.702 62.0391 355.476 61.1101C355.631 60.9552 355.863 60.8778 356.095 61.0326C356.328 61.1101 356.405 61.3423 356.405 61.5746V62.3488C356.405 63.2004 356.715 63.8198 357.257 64.3618C357.799 64.9037 358.495 65.2134 359.27 65.2134H368.947C369.334 65.2134 369.644 65.0586 369.876 64.8263C370.109 64.594 370.264 64.2843 370.264 63.8972ZM354.315 58.9423C353.153 60.3358 351.76 61.0326 350.134 61.0326C347.656 61.0326 346.34 59.3294 346.34 55.8454C346.34 53.3679 347.192 51.5098 348.74 50.271C350.056 49.2646 351.992 48.6452 354.624 48.4903C355.089 48.4129 355.553 48.5678 355.94 48.9549C356.328 49.2646 356.482 49.6517 356.482 50.1936V53.5227C356.173 55.768 355.476 57.5487 354.315 58.9423ZM404.948 35.6384C402.703 32.7738 399.374 31.3802 394.806 31.3802C392.019 31.3802 389.774 31.9221 388.148 33.0835C387.683 33.3931 387.219 33.8577 386.754 34.477C386.29 35.0964 385.903 35.7158 385.516 36.3352C385.438 36.49 385.283 36.5674 385.128 36.5674C384.974 36.5674 384.896 36.5674 384.741 36.49C384.664 36.3352 384.586 36.2577 384.586 36.1029C384.586 34.8641 384.354 33.9351 383.89 33.2383C383.503 32.4641 382.651 32.1544 381.49 32.1544H371.967C371.657 32.1544 371.347 32.2318 371.115 32.5415C370.883 32.7738 370.728 33.006 370.728 33.3931C370.728 33.7802 370.883 34.0899 371.115 34.3222C371.425 34.5545 371.735 34.6319 372.044 34.6319L373.36 34.5545C373.98 34.5545 374.367 35.0964 374.367 36.1029V79.8461C374.367 80.8526 373.98 81.3171 373.36 81.3945L372.431 81.3171C372.044 81.3171 371.734 81.3945 371.425 81.7042C371.193 81.9365 371.038 82.2461 371.038 82.5558C371.038 82.9429 371.193 83.1752 371.425 83.4849C371.657 83.7171 371.967 83.7946 372.276 83.7946H389.154C389.464 83.7946 389.774 83.7171 390.006 83.4849C390.238 83.1752 390.393 82.9429 390.393 82.5558C390.393 82.1687 390.238 81.859 390.006 81.6268C389.774 81.3945 389.464 81.3171 389.077 81.3171L385.516 81.3945C384.896 81.3945 384.509 80.8526 384.509 79.8461V65.7553C384.509 65.136 384.741 64.6714 385.283 64.4392C385.748 64.1295 386.29 64.1295 386.832 64.4392C387.141 64.594 387.529 64.8263 387.916 64.9811C389.464 65.6779 391.245 65.9876 393.413 65.9876C398.445 65.9876 402.161 64.594 404.561 61.7294C406.961 58.8648 408.2 54.5292 408.2 48.8C408.2 42.916 407.116 38.503 404.948 35.6384ZM386.522 38.2707C387.761 36.0255 389.541 34.8642 391.864 34.8642C393.258 34.8642 394.419 35.3287 395.193 36.1803C396.045 37.1094 396.587 38.503 396.897 40.4385C397.206 42.4515 397.361 45.2386 397.361 48.8C397.361 52.284 397.206 54.9938 396.819 56.9293C396.432 58.8648 395.813 60.2584 394.961 61.1101C394.109 61.9617 392.948 62.4262 391.4 62.4262C386.909 62.4262 384.664 58.5551 384.664 50.7356V47.4064C384.664 43.6128 385.283 40.5933 386.522 38.2707Z" fill="white"/>
</g>
<defs>
<clipPath id="clip0_0_3">
<rect width="408.2" height="101.66" fill="white"/>
</clipPath>
</defs>
</svg>
