<svg id="visual" viewBox="0 0 900 600" width="900" height="600" xmlns="http://www.w3.org/2000/svg" xmlns:xlink="http://www.w3.org/1999/xlink" version="1.1"><g><g transform="translate(76 433)"><path d="M0 -106.2L83 -66.2L103.5 23.6L46.1 95.7L-46.1 95.7L-103.5 23.6L-83 -66.2Z" fill="#5b89c7"></path></g><g transform="translate(643 568)"><path d="M0 -89L69.6 -55.5L86.8 19.8L38.6 80.2L-38.6 80.2L-86.8 19.8L-69.6 -55.5Z" fill="#5b89c7"></path></g><g transform="translate(725 3)"><path d="M0 -80L62.5 -49.9L78 17.8L34.7 72.1L-34.7 72.1L-78 17.8L-62.5 -49.9Z" fill="#5b89c7"></path></g><g transform="translate(589 244)"><path d="M0 -87L68 -54.2L84.8 19.4L37.7 78.4L-37.7 78.4L-84.8 19.4L-68 -54.2Z" fill="#5b89c7"></path></g></g></svg>