<svg id="visual" viewBox="0 0 900 600" width="900" height="600" xmlns="http://www.w3.org/2000/svg" xmlns:xlink="http://www.w3.org/1999/xlink" version="1.1"><g><g transform="translate(884 129)"><path d="M0 -123.7L96.7 -77.1L120.6 27.5L53.7 111.4L-53.7 111.4L-120.6 27.5L-96.7 -77.1Z" fill="#297EA6"></path></g><g transform="translate(518 531)"><path d="M0 -56L43.8 -34.9L54.6 12.5L24.3 50.5L-24.3 50.5L-54.6 12.5L-43.8 -34.9Z" fill="#297EA6"></path></g><g transform="translate(240 146)"><path d="M0 -48L37.5 -29.9L46.8 10.7L20.8 43.2L-20.8 43.2L-46.8 10.7L-37.5 -29.9Z" fill="#297EA6"></path></g><g transform="translate(55 491)"><path d="M0 -114L89.1 -71.1L111.1 25.4L49.5 102.7L-49.5 102.7L-111.1 25.4L-89.1 -71.1Z" fill="#297EA6"></path></g><g transform="translate(583 154)"><path d="M0 -57L44.6 -35.5L55.6 12.7L24.7 51.4L-24.7 51.4L-55.6 12.7L-44.6 -35.5Z" fill="#297EA6"></path></g><g transform="translate(865 528)"><path d="M0 -72L56.3 -44.9L70.2 16L31.2 64.9L-31.2 64.9L-70.2 16L-56.3 -44.9Z" fill="#297EA6"></path></g><g transform="translate(296 401)"><path d="M0 -117L91.5 -72.9L114.1 26L50.8 105.4L-50.8 105.4L-114.1 26L-91.5 -72.9Z" fill="#297EA6"></path></g><g transform="translate(2 225)"><path d="M0 -81L63.3 -50.5L79 18L35.1 73L-35.1 73L-79 18L-63.3 -50.5Z" fill="#297EA6"></path></g></g></svg>